<?xml version="1.0" encoding="UTF-8" standalone="no"?>
<!-- Generator: Adobe Illustrator 21.0.0, SVG Export Plug-In . SVG Version: 6.00 Build 0)  -->

<svg
   xmlns:dc="http://purl.org/dc/elements/1.1/"
   xmlns:cc="http://creativecommons.org/ns#"
   xmlns:rdf="http://www.w3.org/1999/02/22-rdf-syntax-ns#"
   xmlns:svg="http://www.w3.org/2000/svg"
   xmlns="http://www.w3.org/2000/svg"
   xmlns:sodipodi="http://sodipodi.sourceforge.net/DTD/sodipodi-0.dtd"
   xmlns:inkscape="http://www.inkscape.org/namespaces/inkscape"
   version="1.1"
   id="Capa_1"
   x="0px"
   y="0px"
   viewBox="0 0 512.006 512.006"
   style="enable-background:new 0 0 512.006 512.006;"
   xml:space="preserve"
   sodipodi:docname="bus-stop.svg"
   inkscape:version="0.92.4 (f8dce91, 2019-08-02)"><metadata
   id="metadata69"><rdf:RDF><cc:Work
       rdf:about=""><dc:format>image/svg+xml</dc:format><dc:type
         rdf:resource="http://purl.org/dc/dcmitype/StillImage" /></cc:Work></rdf:RDF></metadata><defs
   id="defs67" /><sodipodi:namedview
   pagecolor="#ffffff"
   bordercolor="#666666"
   borderopacity="1"
   objecttolerance="10"
   gridtolerance="10"
   guidetolerance="10"
   inkscape:pageopacity="0"
   inkscape:pageshadow="2"
   inkscape:window-width="1920"
   inkscape:window-height="1020"
   id="namedview65"
   showgrid="false"
   inkscape:zoom="0.46093212"
   inkscape:cx="-10.847584"
   inkscape:cy="256.00299"
   inkscape:window-x="0"
   inkscape:window-y="0"
   inkscape:window-maximized="1"
   inkscape:current-layer="Capa_1" />
<g
   transform="translate(0 -1)"
   id="g32"
   style="fill:#4886ff;fill-opacity:1">
	<g
   id="g30"
   style="fill:#4886ff;fill-opacity:1">
		<g
   id="g28"
   style="fill:#4886ff;fill-opacity:1">
			<circle
   cx="214.883"
   cy="188.434"
   r="13.714"
   id="circle2"
   style="fill:#4886ff;fill-opacity:1" />
			<rect
   x="256.026"
   y="92.434"
   width="27.429"
   height="27.429"
   id="rect4"
   style="fill:#4886ff;fill-opacity:1" />
			<polygon
   points="192.026,92.434 164.963,92.434 164.844,119.863 192.026,119.863    "
   id="polygon6"
   style="fill:#4886ff;fill-opacity:1" />
			<rect
   x="210.312"
   y="92.434"
   width="27.429"
   height="27.429"
   id="rect8"
   style="fill:#4886ff;fill-opacity:1" />
			<path
   d="M422.737,467.941c0.238,0.055,0.457,0.119,0.677,0.192l80.064,26.77c0.034-1.683-0.166-3.363-0.594-4.992     l-35.227-129.234L387.93,456.32L422.737,467.941z"
   id="path10"
   style="fill:#4886ff;fill-opacity:1" />
			<path
   d="M318.92,433.326l126.985-152.375l-10.331-37.897c-2.168-7.955-9.392-13.474-17.637-13.477h-24.055     c-28.837,80.841-85.989,154.825-115.913,190.062L318.92,433.326z"
   id="path12"
   style="fill:#4886ff;fill-opacity:1" />
			<circle
   cx="306.312"
   cy="188.434"
   r="13.714"
   id="circle14"
   style="fill:#4886ff;fill-opacity:1" />
			<path
   d="M118.106,229.577H94.115c-8.242,0.001-15.465,5.517-17.637,13.467L49.178,343.15l168.293,56.265     C185.909,359.671,142.133,296.978,118.106,229.577z"
   id="path16"
   style="fill:#4886ff;fill-opacity:1" />
			<path
   d="M31.167,409.18L9.169,489.911c-1.498,5.496-0.35,11.376,3.106,15.904c3.456,4.528,8.825,7.187,14.521,7.191h40.229     l59.904-71.826L31.167,409.18z"
   id="path18"
   style="fill:#4886ff;fill-opacity:1" />
			<path
   d="M417.535,485.477l-48.137-16h-0.064c-1.06-0.357-2.045-0.906-2.907-1.618l-0.073-0.091     c-0.561-0.545-1.049-1.159-1.454-1.829c-0.274-0.315-0.528-0.648-0.759-0.997c-0.198-0.51-0.351-1.036-0.457-1.573     c-0.232-0.59-0.401-1.203-0.503-1.829c0.017-0.38,0.057-0.758,0.119-1.134c-0.013-0.814,0.086-1.626,0.293-2.414v-0.11     c0.222-0.505,0.495-0.985,0.814-1.435c0.228-0.537,0.507-1.051,0.832-1.536l96.549-115.758l-10.002-36.672L328.977,449.829     c-0.119,0.137-0.283,0.183-0.402,0.302c-0.681,0.745-1.489,1.365-2.386,1.829c-0.269,0.156-0.547,0.297-0.832,0.421     c-1.077,0.469-2.236,0.724-3.41,0.75c-0.986,0-1.966-0.164-2.898-0.485l-0.155-0.046l-67.355-22.519     c-2.832-0.476-5.57-1.402-8.11-2.743L44.36,360.814l-8.375,30.693l109.477,36.571c0.549,0.25,1.069,0.556,1.554,0.914     c0.49,0.207,0.958,0.462,1.399,0.759l0.082,0.101c0.565,0.544,1.056,1.158,1.463,1.829c0.273,0.307,0.524,0.634,0.75,0.978     c0.196,0.497,0.346,1.011,0.448,1.536c0.229,0.591,0.397,1.204,0.503,1.829c0,0.347-0.101,0.704-0.11,1.07     c0.013,0.836-0.088,1.669-0.302,2.478v0.11c-0.353,1-0.882,1.929-1.563,2.743c-0.027,0.06-0.057,0.118-0.091,0.174     l-58.725,70.409h40.549l54.4-65.28l0.101-0.082c0.548-0.553,1.162-1.035,1.829-1.435c0.319-0.28,0.655-0.539,1.006-0.777     c0.554-0.217,1.126-0.382,1.71-0.494c0.529-0.205,1.077-0.358,1.637-0.457c0.466,0.014,0.93,0.06,1.39,0.137     c0.727,0.006,1.451,0.095,2.158,0.265h0.128l203.794,68.123h85.659c2.966,0.01,5.889-0.709,8.512-2.094l-75.52-25.253     C417.955,485.577,417.745,485.577,417.535,485.477z"
   id="path20"
   style="fill:#4886ff;fill-opacity:1" />
			<polygon
   points="155.226,513.006 341.887,513.006 195.875,464.229    "
   id="polygon22"
   style="fill:#4886ff;fill-opacity:1" />
			<path
   d="M251.226,410.697l4.626,1.545c0.082,0,0.146,0.046,0.219,0.046c2.646,0.014,5.162-1.148,6.866-3.173     c29.513-34.615,88.539-110.391,115.803-191.333c0.102-0.417,0.233-0.826,0.393-1.225c8.83-25.221,13.568-51.692,14.034-78.409     C392.854,63.445,333.053,2.607,258.367,1.006h-2.341c-70.1-0.643-129.2,52.114-136.485,121.838     c-9.984,112.878,96.594,247.579,129.49,286.171C249.674,409.683,250.414,410.25,251.226,410.697z M214.883,220.434     c-15.864-0.045-29.291-11.724-31.534-27.429h-18.386c-10.196,0.091-18.541-8.09-18.651-18.286V92.434     c0.111-10.196,8.455-18.377,18.651-18.286h166.126c10.063-0.127,19.376,5.304,24.219,14.126     c2.257,4.356,3.915,8.997,4.928,13.797l0.283,1.079c2.405,10.249,4.837,20.261,7.314,30.309l1.435,5.915     c0.466,1.911,1.097,3.968,1.746,6.107c4.386,9.963,4.879,21.207,1.381,31.515c-4.679,9.823-14.61,16.061-25.49,16.009h-9.061     c-2.183,15.747-15.645,27.471-31.543,27.471s-29.36-11.725-31.543-27.471h-28.343     C244.174,208.71,230.747,220.389,214.883,220.434z"
   id="path24"
   style="fill:#4886ff;fill-opacity:1" />
			<path
   d="M306.312,156.434c12.316,0.047,23.513,7.158,28.791,18.286h11.803c3.757-0.023,7.188-2.139,8.896-5.486     c1.07-6.229,0.265-12.635-2.313-18.405c-0.759-2.496-1.49-4.891-2.03-7.122l-1.435-5.915c-2.45-10.057-4.891-20.114-7.314-30.272     l-0.238-0.914c-0.66-3.216-1.713-6.339-3.136-9.298c-1.587-3.071-4.791-4.964-8.247-4.873H301.74v27.429h18.286     c5.049,0,9.143,4.093,9.143,9.143c0,5.049-4.093,9.143-9.143,9.143H164.762l-0.165,36.571h21.495     c5.237-11.171,16.462-18.306,28.8-18.306c12.338,0,23.563,7.135,28.8,18.306h33.829     C282.799,163.592,293.995,156.481,306.312,156.434z"
   id="path26"
   style="fill:#4886ff;fill-opacity:1" />
		</g>
	</g>
</g>
<g
   id="g34">
</g>
<g
   id="g36">
</g>
<g
   id="g38">
</g>
<g
   id="g40">
</g>
<g
   id="g42">
</g>
<g
   id="g44">
</g>
<g
   id="g46">
</g>
<g
   id="g48">
</g>
<g
   id="g50">
</g>
<g
   id="g52">
</g>
<g
   id="g54">
</g>
<g
   id="g56">
</g>
<g
   id="g58">
</g>
<g
   id="g60">
</g>
<g
   id="g62">
</g>
</svg>